

<svg xmlns="http://www.w3.org/2000/svg" viewBox="0 0 128 128">
    <defs>
        <linearGradient id="backgroundGrad" x1="0%" y1="0%" x2="100%" y2="100%">
            <stop offset="0%" style="stop-color:#ffffff;stop-opacity:1" />
            <stop offset="100%" style="stop-color:#1E90FF;stop-opacity:1" />
        </linearGradient>
        <filter id="shadow">
            <feDropShadow dx="0" dy="2" stdDeviation="2" flood-color="#000" flood-opacity="0.3"/>
        </filter>
        <linearGradient id="xGradient" x1="0%" y1="0%" x2="100%" y2="100%">
            <stop offset="0%" stop-color="#4B0082" />
            <stop offset="100%" stop-color="#8A2BE2" />
        </linearGradient>
    </defs>
    
    <!-- Main background -->
    <circle cx="64" cy="64" r="60" fill="url(#backgroundGrad)" filter="url(#shadow)" />
    
    <!-- Browser window shape (now transparent) -->
    <rect x="24" y="30" width="80" height="68" rx="8" ry="8" fill="none" stroke="#ffffff" stroke-width="2" />
    
    <!-- Tab bar (now transparent) -->
    <rect x="24" y="30" width="80" height="16" rx="8" ry="8" fill="none" stroke="#ffffff" stroke-width="2" />
    
    <!-- Tabs -->
    <rect x="28" y="34" width="20" height="8" rx="4" ry="4" fill="#FF6347" opacity="0.7" />
    <rect x="52" y="34" width="20" height="8" rx="4" ry="4" fill="#32CD32" opacity="0.7" />
    <rect x="76" y="34" width="20" height="8" rx="4" ry="4" fill="#FFD700" opacity="0.7" />
    
    <!-- Close icons on tabs (using the new gradient) -->
    <path d="M42 36 L46 40 M46 36 L42 40" stroke="url(#xGradient)" stroke-width="1" stroke-linecap="round" />
    <path d="M66 36 L70 40 M70 36 L66 40" stroke="url(#xGradient)" stroke-width="1" stroke-linecap="round" />
    <path d="M90 36 L94 40 M94 36 L90 40" stroke="url(#xGradient)" stroke-width="1" stroke-linecap="round" />
    
    <!-- Large X to represent closing -->
    <path d="M40 60 L88 108 M88 60 L40 108"
          stroke="url(#xGradient)"
          stroke-width="12"
          stroke-linecap="round" />
</svg>
